<svg xmlns="http://www.w3.org/2000/svg" xmlns:xlink="http://www.w3.org/1999/xlink" contentStyleType="text/css" data-diagram-type="CLASS" height="500px" preserveAspectRatio="none" style="width:2421px;height:500px;background:#FFFFFF;" version="1.1" viewBox="0 0 2421 500" width="2421px" zoomAndPan="magnify"><defs/><g><!--class Image--><g class="entity" data-entity="Image" data-source-line="1" data-uid="ent0002" id="entity_Image"><rect fill="#F1F1F1" height="48" rx="2.5" ry="2.5" style="stroke:#181818;stroke-width:0.5;" width="75.8457" x="468.5" y="445"/><ellipse cx="483.5" cy="461" fill="#ADD1B2" rx="11" ry="11" style="stroke:#181818;stroke-width:1;"/><path d="M486.4688,466.6406 Q485.8906,466.9375 485.25,467.0781 Q484.6094,467.2344 483.9063,467.2344 Q481.4063,467.2344 480.0781,465.5938 Q478.7656,463.9375 478.7656,460.8125 Q478.7656,457.6875 480.0781,456.0313 Q481.4063,454.375 483.9063,454.375 Q484.6094,454.375 485.25,454.5313 Q485.9063,454.6875 486.4688,454.9844 L486.4688,457.7031 Q485.8438,457.125 485.25,456.8594 Q484.6563,456.5781 484.0313,456.5781 Q482.6875,456.5781 482,457.6563 Q481.3125,458.7188 481.3125,460.8125 Q481.3125,462.9063 482,463.9844 Q482.6875,465.0469 484.0313,465.0469 Q484.6563,465.0469 485.25,464.7813 Q485.8438,464.5 486.4688,463.9219 L486.4688,466.6406 Z " fill="#000000"/><text fill="#000000" font-family="sans-serif" font-size="14" lengthAdjust="spacing" textLength="43.8457" x="497.5" y="465.8467">Image</text><line style="stroke:#181818;stroke-width:0.5;" x1="469.5" x2="543.3457" y1="477" y2="477"/><line style="stroke:#181818;stroke-width:0.5;" x1="469.5" x2="543.3457" y1="485" y2="485"/></g><!--class Scene--><g class="entity" data-entity="Scene" data-source-line="2" data-uid="ent0003" id="entity_Scene"><rect fill="#F1F1F1" height="48" rx="2.5" ry="2.5" style="stroke:#181818;stroke-width:0.5;" width="74.6836" x="751" y="445"/><ellipse cx="766" cy="461" fill="#ADD1B2" rx="11" ry="11" style="stroke:#181818;stroke-width:1;"/><path d="M768.9688,466.6406 Q768.3906,466.9375 767.75,467.0781 Q767.1094,467.2344 766.4063,467.2344 Q763.9063,467.2344 762.5781,465.5938 Q761.2656,463.9375 761.2656,460.8125 Q761.2656,457.6875 762.5781,456.0313 Q763.9063,454.375 766.4063,454.375 Q767.1094,454.375 767.75,454.5313 Q768.4063,454.6875 768.9688,454.9844 L768.9688,457.7031 Q768.3438,457.125 767.75,456.8594 Q767.1563,456.5781 766.5313,456.5781 Q765.1875,456.5781 764.5,457.6563 Q763.8125,458.7188 763.8125,460.8125 Q763.8125,462.9063 764.5,463.9844 Q765.1875,465.0469 766.5313,465.0469 Q767.1563,465.0469 767.75,464.7813 Q768.3438,464.5 768.9688,463.9219 L768.9688,466.6406 Z " fill="#000000"/><text fill="#000000" font-family="sans-serif" font-size="14" lengthAdjust="spacing" textLength="42.6836" x="780" y="465.8467">Scene</text><line style="stroke:#181818;stroke-width:0.5;" x1="752" x2="824.6836" y1="477" y2="477"/><line style="stroke:#181818;stroke-width:0.5;" x1="752" x2="824.6836" y1="485" y2="485"/></g><!--class Disp--><g class="entity" data-entity="Disp" data-source-line="3" data-uid="ent0004" id="entity_Disp"><rect fill="#F1F1F1" height="48" rx="2.5" ry="2.5" style="stroke:#181818;stroke-width:0.5;" width="62.8506" x="1734" y="329"/><ellipse cx="1749" cy="345" fill="#ADD1B2" rx="11" ry="11" style="stroke:#181818;stroke-width:1;"/><path d="M1751.9688,350.6406 Q1751.3906,350.9375 1750.75,351.0781 Q1750.1094,351.2344 1749.4063,351.2344 Q1746.9063,351.2344 1745.5781,349.5938 Q1744.2656,347.9375 1744.2656,344.8125 Q1744.2656,341.6875 1745.5781,340.0313 Q1746.9063,338.375 1749.4063,338.375 Q1750.1094,338.375 1750.75,338.5313 Q1751.4063,338.6875 1751.9688,338.9844 L1751.9688,341.7031 Q1751.3438,341.125 1750.75,340.8594 Q1750.1563,340.5781 1749.5313,340.5781 Q1748.1875,340.5781 1747.5,341.6563 Q1746.8125,342.7188 1746.8125,344.8125 Q1746.8125,346.9063 1747.5,347.9844 Q1748.1875,349.0469 1749.5313,349.0469 Q1750.1563,349.0469 1750.75,348.7813 Q1751.3438,348.5 1751.9688,347.9219 L1751.9688,350.6406 Z " fill="#000000"/><text fill="#000000" font-family="sans-serif" font-size="14" lengthAdjust="spacing" textLength="30.8506" x="1763" y="349.8467">Disp</text><line style="stroke:#181818;stroke-width:0.5;" x1="1735" x2="1795.8506" y1="361" y2="361"/><line style="stroke:#181818;stroke-width:0.5;" x1="1735" x2="1795.8506" y1="369" y2="369"/></g><!--class ServiceClient--><g class="entity" data-entity="ServiceClient" data-source-line="5" data-uid="ent0005" id="entity_ServiceClient"><rect fill="#F1F1F1" height="64.2969" rx="2.5" ry="2.5" style="stroke:#181818;stroke-width:0.5;" width="656.9502" x="460" y="321"/><ellipse cx="738.0894" cy="337" fill="#B4A7E5" rx="11" ry="11" style="stroke:#181818;stroke-width:1;"/><path d="M734.0112,332.7656 L734.0112,330.6094 L741.4019,330.6094 L741.4019,332.7656 L738.9331,332.7656 L738.9331,340.8438 L741.4019,340.8438 L741.4019,343 L734.0112,343 L734.0112,340.8438 L736.48,340.8438 L736.48,332.7656 L734.0112,332.7656 Z " fill="#000000"/><text fill="#000000" font-family="sans-serif" font-size="14" font-style="italic" lengthAdjust="spacing" textLength="92.2715" x="758.5894" y="341.8467">ServiceClient</text><line style="stroke:#181818;stroke-width:0.5;" x1="461" x2="1115.9502" y1="353" y2="353"/><line style="stroke:#181818;stroke-width:0.5;" x1="461" x2="1115.9502" y1="361" y2="361"/><ellipse cx="471" cy="374.6484" fill="#84BE84" rx="3" ry="3" style="stroke:#038048;stroke-width:1;"/><text fill="#000000" font-family="sans-serif" font-size="14" lengthAdjust="spacing" textLength="630.9502" x="480" y="377.9951">Image calculer(Scene scene, int x, int y, int largeur, int hauteur) throws RemoteException</text></g><!--class ServiceServeur--><g class="entity" data-entity="ServiceServeur" data-source-line="9" data-uid="ent0006" id="entity_ServiceServeur"><rect fill="#F1F1F1" height="80.5938" rx="2.5" ry="2.5" style="stroke:#181818;stroke-width:0.5;" width="480.9043" x="771" y="172"/><ellipse cx="953.9399" cy="188" fill="#B4A7E5" rx="11" ry="11" style="stroke:#181818;stroke-width:1;"/><path d="M949.8618,183.7656 L949.8618,181.6094 L957.2524,181.6094 L957.2524,183.7656 L954.7837,183.7656 L954.7837,191.8438 L957.2524,191.8438 L957.2524,194 L949.8618,194 L949.8618,191.8438 L952.3306,191.8438 L952.3306,183.7656 L949.8618,183.7656 Z " fill="#000000"/><text fill="#000000" font-family="sans-serif" font-size="14" font-style="italic" lengthAdjust="spacing" textLength="106.5244" x="974.4399" y="192.8467">ServiceServeur</text><line style="stroke:#181818;stroke-width:0.5;" x1="772" x2="1250.9043" y1="204" y2="204"/><line style="stroke:#181818;stroke-width:0.5;" x1="772" x2="1250.9043" y1="212" y2="212"/><ellipse cx="782" cy="225.6484" fill="#84BE84" rx="3" ry="3" style="stroke:#038048;stroke-width:1;"/><text fill="#000000" font-family="sans-serif" font-size="14" lengthAdjust="spacing" textLength="454.9043" x="791" y="228.9951">void enregistrerClient(ServiceClient sc) throws RemoteException</text><ellipse cx="782" cy="241.9453" fill="#84BE84" rx="3" ry="3" style="stroke:#038048;stroke-width:1;"/><text fill="#000000" font-family="sans-serif" font-size="14" lengthAdjust="spacing" textLength="406.5127" x="791" y="245.292">List&lt;ServiceClient&gt; getClients() throws RemoteException</text></g><!--class CalculClient--><g class="entity" data-entity="CalculClient" data-source-line="14" data-uid="ent0007" id="entity_CalculClient"><rect fill="#F1F1F1" height="64.2969" rx="2.5" ry="2.5" style="stroke:#181818;stroke-width:0.5;" width="656.9502" x="7" y="180.5"/><ellipse cx="289.6079" cy="196.5" fill="#ADD1B2" rx="11" ry="11" style="stroke:#181818;stroke-width:1;"/><path d="M292.5767,202.1406 Q291.9985,202.4375 291.3579,202.5781 Q290.7173,202.7344 290.0142,202.7344 Q287.5142,202.7344 286.186,201.0938 Q284.8735,199.4375 284.8735,196.3125 Q284.8735,193.1875 286.186,191.5313 Q287.5142,189.875 290.0142,189.875 Q290.7173,189.875 291.3579,190.0313 Q292.0142,190.1875 292.5767,190.4844 L292.5767,193.2031 Q291.9517,192.625 291.3579,192.3594 Q290.7642,192.0781 290.1392,192.0781 Q288.7954,192.0781 288.1079,193.1563 Q287.4204,194.2188 287.4204,196.3125 Q287.4204,198.4063 288.1079,199.4844 Q288.7954,200.5469 290.1392,200.5469 Q290.7642,200.5469 291.3579,200.2813 Q291.9517,200 292.5767,199.4219 L292.5767,202.1406 Z " fill="#000000"/><text fill="#000000" font-family="sans-serif" font-size="14" lengthAdjust="spacing" textLength="83.2344" x="310.1079" y="201.3467">CalculClient</text><line style="stroke:#181818;stroke-width:0.5;" x1="8" x2="662.9502" y1="212.5" y2="212.5"/><line style="stroke:#181818;stroke-width:0.5;" x1="8" x2="662.9502" y1="220.5" y2="220.5"/><ellipse cx="18" cy="234.1484" fill="#84BE84" rx="3" ry="3" style="stroke:#038048;stroke-width:1;"/><text fill="#000000" font-family="sans-serif" font-size="14" lengthAdjust="spacing" textLength="630.9502" x="27" y="237.4951">Image calculer(Scene scene, int x, int y, int largeur, int hauteur) throws RemoteException</text></g><!--class CalculServeur--><g class="entity" data-entity="CalculServeur" data-source-line="18" data-uid="ent0008" id="entity_CalculServeur"><rect fill="#F1F1F1" height="96.8906" rx="2.5" ry="2.5" style="stroke:#181818;stroke-width:0.5;" width="594.8457" x="567" y="7"/><ellipse cx="811.4292" cy="23" fill="#ADD1B2" rx="11" ry="11" style="stroke:#181818;stroke-width:1;"/><path d="M814.3979,28.6406 Q813.8198,28.9375 813.1792,29.0781 Q812.5386,29.2344 811.8354,29.2344 Q809.3354,29.2344 808.0073,27.5938 Q806.6948,25.9375 806.6948,22.8125 Q806.6948,19.6875 808.0073,18.0313 Q809.3354,16.375 811.8354,16.375 Q812.5386,16.375 813.1792,16.5313 Q813.8354,16.6875 814.3979,16.9844 L814.3979,19.7031 Q813.7729,19.125 813.1792,18.8594 Q812.5854,18.5781 811.9604,18.5781 Q810.6167,18.5781 809.9292,19.6563 Q809.2417,20.7188 809.2417,22.8125 Q809.2417,24.9063 809.9292,25.9844 Q810.6167,27.0469 811.9604,27.0469 Q812.5854,27.0469 813.1792,26.7813 Q813.7729,26.5 814.3979,25.9219 L814.3979,28.6406 Z " fill="#000000"/><text fill="#000000" font-family="sans-serif" font-size="14" lengthAdjust="spacing" textLength="97.4873" x="831.9292" y="27.8467">CalculServeur</text><line style="stroke:#181818;stroke-width:0.5;" x1="568" x2="1160.8457" y1="39" y2="39"/><rect fill="none" height="6" style="stroke:#C82930;stroke-width:1;" width="6" x="575" y="49.6484"/><text fill="#000000" font-family="sans-serif" font-size="14" lengthAdjust="spacing" textLength="248.9717" x="587" y="55.9951">final List&lt;ServiceClient&gt; listeClient</text><line style="stroke:#181818;stroke-width:0.5;" x1="568" x2="1160.8457" y1="63.2969" y2="63.2969"/><ellipse cx="578" cy="76.9453" fill="#84BE84" rx="3" ry="3" style="stroke:#038048;stroke-width:1;"/><text fill="#000000" font-family="sans-serif" font-size="14" lengthAdjust="spacing" textLength="568.8457" x="587" y="80.292">synchronized void enregistrerClient(ServiceClient var1) throws RemoteException</text><ellipse cx="578" cy="93.2422" fill="#84BE84" rx="3" ry="3" style="stroke:#038048;stroke-width:1;"/><text fill="#000000" font-family="sans-serif" font-size="14" lengthAdjust="spacing" textLength="503.918" x="587" y="96.5889">synchronized List&lt;ServiceClient&gt; getClients() throws RemoteException</text></g><!--class Client--><g class="entity" data-entity="Client" data-source-line="24" data-uid="ent0009" id="entity_Client"><rect fill="#F1F1F1" height="64.2969" rx="2.5" ry="2.5" style="stroke:#181818;stroke-width:0.5;" width="236.54" x="1197" y="23.5"/><ellipse cx="1290.7549" cy="39.5" fill="#ADD1B2" rx="11" ry="11" style="stroke:#181818;stroke-width:1;"/><path d="M1293.7236,45.1406 Q1293.1455,45.4375 1292.5049,45.5781 Q1291.8643,45.7344 1291.1611,45.7344 Q1288.6611,45.7344 1287.333,44.0938 Q1286.0205,42.4375 1286.0205,39.3125 Q1286.0205,36.1875 1287.333,34.5313 Q1288.6611,32.875 1291.1611,32.875 Q1291.8643,32.875 1292.5049,33.0313 Q1293.1611,33.1875 1293.7236,33.4844 L1293.7236,36.2031 Q1293.0986,35.625 1292.5049,35.3594 Q1291.9111,35.0781 1291.2861,35.0781 Q1289.9424,35.0781 1289.2549,36.1563 Q1288.5674,37.2188 1288.5674,39.3125 Q1288.5674,41.4063 1289.2549,42.4844 Q1289.9424,43.5469 1291.2861,43.5469 Q1291.9111,43.5469 1292.5049,43.2813 Q1293.0986,43 1293.7236,42.4219 L1293.7236,45.1406 Z " fill="#000000"/><text fill="#000000" font-family="sans-serif" font-size="14" lengthAdjust="spacing" textLength="40.5303" x="1311.2549" y="44.3467">Client</text><line style="stroke:#181818;stroke-width:0.5;" x1="1198" x2="1432.54" y1="55.5" y2="55.5"/><line style="stroke:#181818;stroke-width:0.5;" x1="1198" x2="1432.54" y1="63.5" y2="63.5"/><ellipse cx="1208" cy="77.1484" fill="#84BE84" rx="3" ry="3" style="stroke:#038048;stroke-width:1;"/><text fill="#000000" font-family="sans-serif" font-size="14" lengthAdjust="spacing" textLength="210.54" x="1217" y="80.4951">static void main(String[] args)</text></g><!--class LancerRaytracer--><g class="entity" data-entity="LancerRaytracer" data-source-line="28" data-uid="ent0010" id="entity_LancerRaytracer"><rect fill="#F1F1F1" height="96.8906" rx="2.5" ry="2.5" style="stroke:#181818;stroke-width:0.5;" width="1127.4131" x="1287" y="164"/><ellipse cx="1788.5562" cy="180" fill="#ADD1B2" rx="11" ry="11" style="stroke:#181818;stroke-width:1;"/><path d="M1791.5249,185.6406 Q1790.9468,185.9375 1790.3062,186.0781 Q1789.6655,186.2344 1788.9624,186.2344 Q1786.4624,186.2344 1785.1343,184.5938 Q1783.8218,182.9375 1783.8218,179.8125 Q1783.8218,176.6875 1785.1343,175.0313 Q1786.4624,173.375 1788.9624,173.375 Q1789.6655,173.375 1790.3062,173.5313 Q1790.9624,173.6875 1791.5249,173.9844 L1791.5249,176.7031 Q1790.8999,176.125 1790.3062,175.8594 Q1789.7124,175.5781 1789.0874,175.5781 Q1787.7437,175.5781 1787.0562,176.6563 Q1786.3687,177.7188 1786.3687,179.8125 Q1786.3687,181.9063 1787.0562,182.9844 Q1787.7437,184.0469 1789.0874,184.0469 Q1789.7124,184.0469 1790.3062,183.7813 Q1790.8999,183.5 1791.5249,182.9219 L1791.5249,185.6406 Z " fill="#000000"/><text fill="#000000" font-family="sans-serif" font-size="14" lengthAdjust="spacing" textLength="115.8008" x="1809.0562" y="184.8467">LancerRaytracer</text><line style="stroke:#181818;stroke-width:0.5;" x1="1288" x2="2413.4131" y1="196" y2="196"/><line style="stroke:#181818;stroke-width:0.5;" x1="1288" x2="2413.4131" y1="204" y2="204"/><ellipse cx="1298" cy="217.6484" fill="#84BE84" rx="3" ry="3" style="stroke:#038048;stroke-width:1;"/><text fill="#000000" font-family="sans-serif" font-size="14" lengthAdjust="spacing" textLength="210.54" x="1307" y="220.9951">static void main(String[] args)</text><ellipse cx="1298" cy="233.9453" fill="#84BE84" rx="3" ry="3" style="stroke:#038048;stroke-width:1;"/><text fill="#000000" font-family="sans-serif" font-size="14" lengthAdjust="spacing" textLength="1101.4131" x="1307" y="237.292">static void calculerImageSequentiel(List&lt;ServiceClient&gt; sc, int nbDecoupe, Disp disp, Scene scene, int fragmentHeight, int h, int l) throws RemoteException</text><ellipse cx="1298" cy="250.2422" fill="#84BE84" rx="3" ry="3" style="stroke:#038048;stroke-width:1;"/><text fill="#000000" font-family="sans-serif" font-size="14" lengthAdjust="spacing" textLength="1076.0449" x="1307" y="253.5889">static void calculerImageThread(List&lt;ServiceClient&gt; sc, int nbDecoupe, Disp disp, Scene scene, int fragmentHeight, int h, int l) throws RemoteException</text></g><!--class Serveur--><g class="entity" data-entity="Serveur" data-source-line="34" data-uid="ent0011" id="entity_Serveur"><rect fill="#F1F1F1" height="64.2969" rx="2.5" ry="2.5" style="stroke:#181818;stroke-width:0.5;" width="236.54" x="1469" y="23.5"/><ellipse cx="1555.6284" cy="39.5" fill="#ADD1B2" rx="11" ry="11" style="stroke:#181818;stroke-width:1;"/><path d="M1558.5972,45.1406 Q1558.019,45.4375 1557.3784,45.5781 Q1556.7378,45.7344 1556.0347,45.7344 Q1553.5347,45.7344 1552.2065,44.0938 Q1550.894,42.4375 1550.894,39.3125 Q1550.894,36.1875 1552.2065,34.5313 Q1553.5347,32.875 1556.0347,32.875 Q1556.7378,32.875 1557.3784,33.0313 Q1558.0347,33.1875 1558.5972,33.4844 L1558.5972,36.2031 Q1557.9722,35.625 1557.3784,35.3594 Q1556.7847,35.0781 1556.1597,35.0781 Q1554.8159,35.0781 1554.1284,36.1563 Q1553.4409,37.2188 1553.4409,39.3125 Q1553.4409,41.4063 1554.1284,42.4844 Q1554.8159,43.5469 1556.1597,43.5469 Q1556.7847,43.5469 1557.3784,43.2813 Q1557.9722,43 1558.5972,42.4219 L1558.5972,45.1406 Z " fill="#000000"/><text fill="#000000" font-family="sans-serif" font-size="14" lengthAdjust="spacing" textLength="54.7832" x="1576.1284" y="44.3467">Serveur</text><line style="stroke:#181818;stroke-width:0.5;" x1="1470" x2="1704.54" y1="55.5" y2="55.5"/><line style="stroke:#181818;stroke-width:0.5;" x1="1470" x2="1704.54" y1="63.5" y2="63.5"/><ellipse cx="1480" cy="77.1484" fill="#84BE84" rx="3" ry="3" style="stroke:#038048;stroke-width:1;"/><text fill="#000000" font-family="sans-serif" font-size="14" lengthAdjust="spacing" textLength="210.54" x="1489" y="80.4951">static void main(String[] args)</text></g><!--link CalculServeur to ServiceServeur--><g class="link" data-entity-1="CalculServeur" data-entity-2="ServiceServeur" data-source-line="39" data-uid="lnk12" id="link_CalculServeur_ServiceServeur"><path codeLine="39" d="M909.8,104.27 C930.39,125.97 942.0655,138.2777 961.6155,158.8977" fill="none" id="CalculServeur-to-ServiceServeur" style="stroke:#181818;stroke-width:1;"/><polygon fill="none" points="974,171.96,965.9696,154.7695,957.2614,163.0258,974,171.96" style="stroke:#181818;stroke-width:1;"/></g><!--link CalculClient to ServiceClient--><g class="link" data-entity-1="CalculClient" data-entity-2="ServiceClient" data-source-line="40" data-uid="lnk13" id="link_CalculClient_ServiceClient"><path codeLine="40" d="M437.16,244.58 C511.64,267.35 595.0863,292.8681 669.5763,315.6381" fill="none" id="CalculClient-to-ServiceClient" style="stroke:#181818;stroke-width:1;"/><polygon fill="none" points="686.79,320.9,671.3302,309.9002,667.8223,321.376,686.79,320.9" style="stroke:#181818;stroke-width:1;"/></g><!--link CalculClient to Scene--><g class="link" data-entity-1="CalculClient" data-entity-2="Scene" data-source-line="43" data-uid="lnk14" id="link_CalculClient_Scene"><path codeLine="43" d="M346.41,244.7 C361.69,283.67 393.24,349.52 442.5,385 C537.99,453.78 676.9622,465.9984 744.8922,467.8284" fill="none" id="CalculClient-to-Scene" style="stroke:#181818;stroke-width:1;"/><polygon fill="#181818" points="750.89,467.99,742.001,463.7491,745.8918,467.8554,741.7855,471.7462,750.89,467.99" style="stroke:#181818;stroke-width:1;"/></g><!--link CalculClient to Image--><g class="link" data-entity-1="CalculClient" data-entity-2="Image" data-source-line="44" data-uid="lnk15" id="link_CalculClient_Image"><path codeLine="44" d="M337.05,244.81 C340.27,281.53 350.17,342.73 380.5,385 C402.64,415.86 434.7303,435.774 463.0703,449.504" fill="none" id="CalculClient-to-Image" style="stroke:#181818;stroke-width:1;"/><polygon fill="#181818" points="468.47,452.12,462.1145,444.5962,463.9703,449.94,458.6265,451.7958,468.47,452.12" style="stroke:#181818;stroke-width:1;"/></g><!--link LancerRaytracer to Scene--><g class="link" data-entity-1="LancerRaytracer" data-entity-2="Scene" data-source-line="46" data-uid="lnk16" id="link_LancerRaytracer_Scene"><path codeLine="46" d="M1854.69,261.06 C1855.3,300.42 1848.97,354.63 1814.5,385 C1739,451.53 1008.0395,465.1606 832.0895,467.4906" fill="none" id="LancerRaytracer-to-Scene" style="stroke:#181818;stroke-width:1;"/><polygon fill="#181818" points="826.09,467.57,835.1422,471.4505,831.0896,467.5038,835.0362,463.4512,826.09,467.57" style="stroke:#181818;stroke-width:1;"/></g><!--link LancerRaytracer to Disp--><g class="link" data-entity-1="LancerRaytracer" data-entity-2="Disp" data-source-line="47" data-uid="lnk17" id="link_LancerRaytracer_Disp"><path codeLine="47" d="M1821.25,261.16 C1807.23,284.01 1794.1967,305.2252 1782.9067,323.6352" fill="none" id="LancerRaytracer-to-Disp" style="stroke:#181818;stroke-width:1;"/><polygon fill="#181818" points="1779.77,328.75,1787.8849,323.1689,1782.3839,324.4877,1781.0651,318.9867,1779.77,328.75" style="stroke:#181818;stroke-width:1;"/></g><!--link LancerRaytracer to ServiceClient--><g class="link" data-entity-1="LancerRaytracer" data-entity-2="ServiceClient" data-source-line="48" data-uid="lnk18" id="link_LancerRaytracer_ServiceClient"><path codeLine="48" d="M1486.13,261.02 C1334.1,280.85 1167.7396,302.5441 1032.3996,320.1941" fill="none" id="LancerRaytracer-to-ServiceClient" style="stroke:#181818;stroke-width:1;"/><polygon fill="#181818" points="1026.45,320.97,1035.8917,323.7726,1031.408,320.3234,1034.8572,315.8397,1026.45,320.97" style="stroke:#181818;stroke-width:1;"/></g><!--link CalculServeur to ServiceClient--><g class="link" data-entity-1="CalculServeur" data-entity-2="ServiceClient" data-source-line="50" data-uid="lnk19" id="link_CalculServeur_ServiceClient"><path codeLine="50" d="M798.35,104.08 C780.36,120.78 763.18,141.15 753.5,164 C731.36,216.27 751.8855,277.157 769.6355,315.427" fill="none" id="CalculServeur-to-ServiceClient" style="stroke:#181818;stroke-width:1;"/><polygon fill="#181818" points="772.16,320.87,772.0019,311.0224,770.0562,316.3341,764.7445,314.3885,772.16,320.87" style="stroke:#181818;stroke-width:1;"/></g><!--link ServiceClient to Image--><g class="link" data-entity-1="ServiceClient" data-entity-2="Image" data-source-line="52" data-uid="lnk20" id="link_ServiceClient_Image"><path codeLine="52" d="M711.81,385 C657.67,406.89 592.9727,433.0415 550.2727,450.3015" fill="none" id="ServiceClient-to-Image" style="stroke:#181818;stroke-width:1;"/><polygon fill="#181818" points="544.71,452.55,554.5531,452.8857,549.3456,450.6762,551.5551,445.4687,544.71,452.55" style="stroke:#181818;stroke-width:1;"/></g><!--link ServiceClient to Scene--><g class="link" data-entity-1="ServiceClient" data-entity-2="Scene" data-source-line="53" data-uid="lnk21" id="link_ServiceClient_Scene"><path codeLine="53" d="M788.5,385.15 C788.5,404.01 788.5,421.65 788.5,438.84" fill="none" id="ServiceClient-to-Scene" style="stroke:#181818;stroke-width:1;"/><polygon fill="#181818" points="788.5,444.84,792.5,435.84,788.5,439.84,784.5,435.84,788.5,444.84" style="stroke:#181818;stroke-width:1;"/></g><!--link ServiceServeur to ServiceClient--><g class="link" data-entity-1="ServiceServeur" data-entity-2="ServiceClient" data-source-line="55" data-uid="lnk22" id="link_ServiceServeur_ServiceClient"><path codeLine="55" d="M947.9,253 C913.27,274.51 876.1277,297.5856 843.8277,317.6356" fill="none" id="ServiceServeur-to-ServiceClient" style="stroke:#181818;stroke-width:1;"/><polygon fill="#181818" points="838.73,320.8,848.4862,319.4519,842.9781,318.163,844.267,312.655,838.73,320.8" style="stroke:#181818;stroke-width:1;"/></g><!--SRC=[nLHBJiCm4Dtx5BCZ5Us2FQg4MYIGkchO8HR6dQQM72VOJcdv78XpS34cSThKILfLB20B_p9lvirNA6ujtASyGIQgSonGxyvJQNF6f7PebbmWn6ZMKk14ITGEtXdGTrc1GN0b2eKcgl1WotK818MDtxP-KzmaM1X_MV72qMK0RcMoLmjpJ3E7jnk1kPEPPfyznikDC3lhwqmk0BN1H5fdq7XkKSZKYgCcAYKpmbu7a34awFpHHgVu-K1DAk__CYw7TiEGZ9PISmLzFYbwgo-UezrgGIQqVCC5d1NADJTNntW1z6ZzPMn9L-Db45Vhk9F2iqsvr57iZDJ9unDG2EsWWSsu5cZcVEiCrOyv5zyHsgMmIcYCBmMHaQYYFi-iy1dKprCKMP5JhiicWWKjG-ZKmDBm92NW7SfavUharmLnkcIF4dnO6UIBVoEtZtwhJy_8sWNDeLnzVvKsUQdCih2-HwEFSMiCiA3p3WNgCYUjDzPcGWOQz_BZUjvrdlr8PEqQQX1zVwfvsGi9ERNTwWY4FTVmwRvxCgmr73igVm00]--></g></svg>